<?xml version="1.0" encoding="UTF-8"?>
<svg id="Layer_2" data-name="Layer 2" xmlns="http://www.w3.org/2000/svg" version="1.1" viewBox="0 0 200 47.5">
  <defs>
    <style>
      .cls-1, .cls-2 {
        fill: #fff;
        stroke-width: 0px;
      }

      .cls-2 {
        isolation: isolate;
        opacity: .1;
      }
    </style>
  </defs>
  <g id="Layer_1-2" data-name="Layer 1-2">
    <g>
      <g>
        <circle class="cls-2" cx="19.6" cy="24.7" r="10.6"/>
        <circle class="cls-1" cx="34.9" cy="17.5" r="3"/>
        <circle class="cls-1" cx="4.2" cy="17.5" r="3"/>
        <circle class="cls-1" cx="19.6" cy="44.5" r="3"/>
        <path class="cls-1" d="M7.6,28.4c-.8-1.1-2-1.8-3.4-1.8-2.3,0-4.2,1.9-4.2,4.2s1.9,4.2,4.2,4.2,4.2-1.9,4.2-4.2,0-.4,0-.6l11.3-4.5v-1.1l-1-.7-11,4.4h0Z"/>
        <path class="cls-1" d="M34.9,26.6c-1.4,0-2.6.7-3.4,1.8l-11-4.4-1,.7v1.1l11.3,4.5c0,.2,0,.4,0,.6,0,2.3,1.9,4.2,4.2,4.2s4.2-1.9,4.2-4.2-1.9-4.2-4.2-4.2Z"/>
        <path class="cls-1" d="M23.7,4.2c0-2.3-1.9-4.2-4.2-4.2s-4.2,1.9-4.2,4.2,1.4,3.6,3.2,4.1v15.8l1,.7,1-.7v-15.8c1.8-.4,3.2-2.1,3.2-4.1Z"/>
      </g>
      <g>
        <path class="cls-1" d="M54.3,28.3h-1v1.9c0,.5-.4,1-1,1h-2.9v-11.5h5.5c3.2,0,5.2,1.7,5.2,4.3s-.8,2.9-2.2,3.6l2.4,3.5h-4.1l-2-2.9ZM54.7,22.6h-1.4v2.7h1.4c1.1,0,1.6-.5,1.6-1.4s-.5-1.4-1.6-1.4h0Z"/>
        <path class="cls-1" d="M71.2,29.2v1.9h-9.6v-11.5h9.3v2c0,.5-.4,1-1,1h-4.6v1.4h4.9v2.8h-4.9v1.5h4.8c.6,0,1,.4,1,1h0Z"/>
        <path class="cls-1" d="M83.5,24c0,2.7-2,4.3-5.2,4.3h-1.7v1.9c0,.5-.4,1-1,1h-2.9v-11.5h5.5c3.2,0,5.2,1.7,5.2,4.3h0ZM79.6,24c0-.8-.5-1.4-1.6-1.4h-1.4v2.7h1.4c1.1,0,1.6-.5,1.6-1.4h0Z"/>
        <path class="cls-1" d="M84.5,25.4c0-3.5,2.7-6,6.5-6s6.5,2.5,6.5,6-2.7,6-6.5,6-6.5-2.5-6.5-6ZM93.5,25.4c0-1.8-1.2-2.9-2.6-2.9s-2.6,1.1-2.6,2.9,1.2,2.9,2.6,2.9,2.6-1.1,2.6-2.9Z"/>
        <path class="cls-1" d="M98.1,30.2l.9-1.9c.2-.5.8-.7,1.2-.5.9.4,2,.6,3,.6s1.5-.2,1.5-.6c0-1.5-6.4-.3-6.4-4.6s1.8-3.9,5.3-3.9,3.1.3,4.3,1l-.8,1.9c-.2.5-.7.7-1.2.5-.8-.3-1.6-.5-2.4-.5-1.1,0-1.5.3-1.5.7,0,1.4,6.4.2,6.4,4.5s-1.8,3.9-5.3,3.9-3.9-.5-5-1.2h0Z"/>
        <path class="cls-1" d="M109.6,19.6h2.9c.5,0,1,.4,1,1v10.5h-3.9v-11.5h0Z"/>
        <path class="cls-1" d="M117.9,22.7h-3.4v-3h9.6c.5,0,1,.4,1,1v2h-3.4v8.5h-3.9v-8.5h0Z"/>
        <path class="cls-1" d="M125.5,25.4c0-3.5,2.7-6,6.5-6s6.5,2.5,6.5,6-2.7,6-6.5,6-6.5-2.5-6.5-6ZM134.6,25.4c0-1.8-1.1-2.9-2.6-2.9s-2.6,1.1-2.6,2.9,1.1,2.9,2.6,2.9,2.6-1.1,2.6-2.9ZM132.4,16.1h.7c.9,0,1.4,1.2.6,1.8l-1.1.9h-2.5l2.2-2.6h0Z"/>
        <path class="cls-1" d="M144.8,28.3h-1.1v1.9c0,.5-.4,1-1,1h-2.9v-11.5h5.5c3.2,0,5.2,1.7,5.2,4.3s-.8,2.9-2.2,3.6l2.4,3.5h-4.1l-1.9-2.9h0ZM145.2,22.6h-1.4v2.7h1.4c1.1,0,1.6-.5,1.6-1.4s-.5-1.4-1.6-1.4h0Z"/>
        <path class="cls-1" d="M152.1,19.6h2.9c.5,0,1,.4,1,1v10.5h-3.9s0-11.5,0-11.5Z"/>
        <path class="cls-1" d="M157.4,25.4c0-3.5,2.7-6,6.5-6s6.5,2.5,6.5,6-2.7,6-6.5,6-6.5-2.5-6.5-6ZM166.5,25.4c0-1.8-1.1-2.9-2.6-2.9s-2.6,1.1-2.6,2.9,1.1,2.9,2.6,2.9,2.6-1.1,2.6-2.9Z"/>
        <path class="cls-1" d="M176.3,25.4c0-3.5,2.7-6,6.4-6s4,.8,5.2,2.3l-1.8,1.6c-.4.3-.9.3-1.2,0-.6-.5-1.2-.7-1.9-.7-1.6,0-2.7,1.1-2.7,2.9s1.1,2.9,2.7,2.9,1.4-.3,1.9-.7c.4-.3.9-.3,1.3,0l1.8,1.6c-1.1,1.5-2.9,2.3-5.2,2.3-3.7,0-6.4-2.5-6.4-6h0Z"/>
        <path class="cls-1" d="M197.3,25.1h2.4v4.9c-1.4,1-3.3,1.5-5,1.5-3.7,0-6.4-2.5-6.4-6s2.7-6,6.5-6,4.1.8,5.3,2.2l-1.8,1.6c-.3.3-.9.3-1.2,0-.6-.5-1.2-.7-2-.7-1.7,0-2.8,1.1-2.8,2.9s1.1,2.9,2.7,2.9.9,0,1.4-.3v-1.9c0-.5.4-1,1-1h0Z"/>
      </g>
    </g>
  </g>
</svg>